<svg width="19" height="25" viewBox="0 0 19 25" fill="none" xmlns="http://www.w3.org/2000/svg">
<path fill-rule="evenodd" clip-rule="evenodd" d="M2.09165e-07 24.2182V3.12493C2.09165e-07 2.29615 0.329233 1.50131 0.91527 0.91527C1.50131 0.329233 2.29615 0 3.12493 0L15.6246 0C16.4534 0 17.2483 0.329233 17.8343 0.91527C18.4203 1.50131 18.7496 2.29615 18.7496 3.12493V24.2182C18.7497 24.3539 18.7144 24.4872 18.6473 24.6051C18.5802 24.723 18.4836 24.8214 18.3669 24.8907C18.2503 24.9599 18.1176 24.9975 17.9819 24.9999C17.8463 25.0022 17.7124 24.9692 17.5933 24.9041L9.37478 20.4198L1.15622 24.9041C1.03721 24.9692 0.90329 25.0022 0.767646 24.9999C0.632003 24.9975 0.499312 24.9599 0.382635 24.8907C0.265957 24.8214 0.169316 24.723 0.102224 24.6051C0.0351313 24.4872 -9.90505e-05 24.3539 2.09165e-07 24.2182ZM6.24986 9.37479C6.04266 9.37479 5.84395 9.45709 5.69744 9.6036C5.55093 9.75011 5.46862 9.94882 5.46862 10.156C5.46862 10.3632 5.55093 10.5619 5.69744 10.7084C5.84395 10.8549 6.04266 10.9372 6.24986 10.9372H12.4997C12.7069 10.9372 12.9056 10.8549 13.0521 10.7084C13.1986 10.5619 13.2809 10.3632 13.2809 10.156C13.2809 9.94882 13.1986 9.75011 13.0521 9.6036C12.9056 9.45709 12.7069 9.37479 12.4997 9.37479H6.24986Z" fill="#2B2D2F"/>
</svg>
