<svg width="127" height="105" viewBox="0 0 127 105" fill="none" xmlns="http://www.w3.org/2000/svg">
<path d="M0 53.5C7.29013e-07 46.7369 1.64248 40.0401 4.83365 33.7918C8.02483 27.5435 12.7022 21.8662 18.5987 17.084C24.4952 12.3018 31.4954 8.50832 39.1996 5.9202C46.9038 3.33209 55.1611 2 63.5 2C71.839 2 80.0962 3.33209 87.8004 5.92021C95.5046 8.50833 102.505 12.3018 108.401 17.084C114.298 21.8662 118.975 27.5435 122.166 33.7918C125.358 40.0401 127 46.7369 127 53.5H120.821C120.821 47.395 119.338 41.3498 116.458 35.7095C113.577 30.0693 109.355 24.9444 104.032 20.6275C98.7094 16.3106 92.3903 12.8863 85.4358 10.55C78.4813 8.21375 71.0275 7.01128 63.5 7.01128C55.9725 7.01128 48.5187 8.21375 41.5642 10.55C34.6097 12.8863 28.2907 16.3106 22.9679 20.6275C17.6452 24.9444 13.4229 30.0693 10.5423 35.7095C7.66162 41.3498 6.17896 47.395 6.17896 53.5H0Z" fill="url(#paint0_linear_6_1910)"/>
<circle cx="41.5" cy="7.5" r="7.5" fill="white"/>
<defs>
<linearGradient id="paint0_linear_6_1910" x1="135.015" y1="40.0959" x2="-28.5782" y2="50.8854" gradientUnits="userSpaceOnUse">
<stop offset="0.154645" stop-color="#C4C4C4"/>
<stop offset="0.813336" stop-color="#ED3C3C" stop-opacity="0.304914"/>
<stop offset="1" stop-color="#FF0000" stop-opacity="0"/>
</linearGradient>
</defs>
</svg>
