<svg width="140" height="98" viewBox="0 0 140 98" fill="none" xmlns="http://www.w3.org/2000/svg">
<g filter="url(#filter0_f_6_1806)">
<g filter="url(#filter1_d_6_1806)">
<path d="M79.624 65.6619H36.2824C32.0779 65.6595 28.0377 64.433 25.0075 62.2391C21.9772 60.0452 20.192 57.054 20.0255 53.8917C19.859 50.7295 21.3241 47.6413 24.1141 45.2738C26.9041 42.9062 30.8027 41.4428 34.9937 41.1899C35.5914 38.0133 37.4971 35.0577 40.4428 32.7389C43.3885 30.4201 47.2259 28.8547 51.4151 28.2631C55.6044 27.6715 59.9347 28.0833 63.7967 29.4408C67.6587 30.7982 70.8582 33.0328 72.945 35.8303C76.7724 34.833 80.9077 34.7165 84.8234 35.4955C88.7391 36.2746 92.2578 37.9139 94.9307 40.2044C97.6035 42.4949 99.3094 45.3327 99.8307 48.356C100.352 51.3792 99.665 54.4509 97.8575 57.179C96.7969 59.6441 94.726 61.7928 91.942 63.3169C89.158 64.8409 85.8042 65.6619 82.3618 65.6619H79.624Z" fill="url(#paint0_linear_6_1806)"/>
<path d="M82.3609 65.4918C84.1089 65.4918 85.8274 65.2818 87.4689 64.8675C89.0562 64.4668 90.5464 63.8822 91.898 63.1298C93.2341 62.386 94.4053 61.495 95.3791 60.4817C96.365 59.4557 97.1261 58.327 97.6413 57.127L97.6466 57.1147L97.6543 57.1031C98.3394 56.0725 98.867 54.9823 99.2224 53.8627C99.5881 52.7106 99.7736 51.5202 99.7736 50.3246C99.7736 49.2955 99.6359 48.267 99.3642 47.2678C99.0995 46.294 98.7045 45.3362 98.1902 44.421C97.6852 43.5223 97.0602 42.6555 96.3324 41.8447C95.6115 41.0415 94.7836 40.2862 93.8718 39.5999C92.9599 38.9135 91.9565 38.2903 90.8894 37.7477C89.8122 37.1999 88.6606 36.7294 87.4667 36.3493C86.2507 35.9622 84.9782 35.6649 83.6846 35.4656C82.3571 35.2611 80.9907 35.1575 79.6233 35.1575C77.3594 35.1575 75.1371 35.4379 73.0183 35.991L72.8396 36.0377L72.7468 35.9135C71.0225 33.6058 68.5144 31.6677 65.4936 30.3088C63.9659 29.6216 62.3246 29.0905 60.6154 28.7304C58.852 28.3588 57.0203 28.1704 55.1713 28.1704C52.6843 28.1704 50.2566 28.5073 47.9556 29.1718C45.7327 29.8137 43.6936 30.741 41.8948 31.9278C40.1063 33.1078 38.6222 34.5001 37.4835 36.066C36.3168 37.6704 35.5543 39.4022 35.2171 41.2133L35.1919 41.3489L35.0106 41.3596C32.9824 41.4791 31.031 41.881 29.2107 42.5542C27.4419 43.2084 25.8624 44.0931 24.5161 45.184C21.7499 47.4254 20.2264 50.3457 20.2264 53.407C20.2264 55.0385 20.6509 56.6211 21.488 58.1109C21.8904 58.8269 22.3884 59.5176 22.9683 60.1636C23.5426 60.8036 24.2023 61.4053 24.9289 61.9522C25.6555 62.4992 26.455 62.9957 27.3051 63.428C28.1634 63.8645 29.081 64.2393 30.0323 64.5422C32.0115 65.1723 34.114 65.4918 36.2816 65.4918H79.6233H82.3609ZM82.3609 65.6622H79.6233H36.2816C27.2895 65.6622 20 60.1754 20 53.407C20 46.9651 26.6031 41.684 34.9929 41.1897C36.3807 33.7358 44.886 28 55.1713 28C62.8017 28 69.4524 31.1567 72.9441 35.83C75.0366 35.2838 77.2839 34.987 79.6233 34.987C90.8772 34.987 100 41.854 100 50.3246C100 52.7882 99.228 55.1166 97.8568 57.1794C95.7432 62.102 89.6046 65.6622 82.3609 65.6622Z" fill="white" fill-opacity="0.5"/>
</g>
</g>
<defs>
<filter id="filter0_f_6_1806" x="16" y="24" width="88.0005" height="45.6621" filterUnits="userSpaceOnUse" color-interpolation-filters="sRGB">
<feFlood flood-opacity="0" result="BackgroundImageFix"/>
<feBlend mode="normal" in="SourceGraphic" in2="BackgroundImageFix" result="shape"/>
<feGaussianBlur stdDeviation="2" result="effect1_foregroundBlur_6_1806"/>
</filter>
<filter id="filter1_d_6_1806" x="0" y="0" width="140" height="97.6621" filterUnits="userSpaceOnUse" color-interpolation-filters="sRGB">
<feFlood flood-opacity="0" result="BackgroundImageFix"/>
<feColorMatrix in="SourceAlpha" type="matrix" values="0 0 0 0 0 0 0 0 0 0 0 0 0 0 0 0 0 0 127 0" result="hardAlpha"/>
<feOffset dx="10" dy="2"/>
<feGaussianBlur stdDeviation="15"/>
<feColorMatrix type="matrix" values="0 0 0 0 0.44901 0 0 0 0 0.730915 0 0 0 0 0.970833 0 0 0 0.596 0"/>
<feBlend mode="normal" in2="BackgroundImageFix" result="effect1_dropShadow_6_1806"/>
<feBlend mode="normal" in="SourceGraphic" in2="effect1_dropShadow_6_1806" result="shape"/>
</filter>
<linearGradient id="paint0_linear_6_1806" x1="60.0065" y1="28" x2="74.0629" y2="73.1503" gradientUnits="userSpaceOnUse">
<stop stop-color="white" stop-opacity="0.604"/>
<stop offset="1" stop-color="white" stop-opacity="0.2"/>
</linearGradient>
</defs>
</svg>
