<svg width="21" height="22" viewBox="0 0 21 22" fill="none" xmlns="http://www.w3.org/2000/svg">
<path fill-rule="evenodd" clip-rule="evenodd" d="M14.5134 20.4998H6.16555C3.09919 20.4998 0.746786 19.3922 1.41498 14.9346L2.19301 8.89339C2.60491 6.66913 4.02367 5.81787 5.26852 5.81787H15.447C16.7102 5.81787 18.0466 6.7332 18.5225 8.89339L19.3006 14.9346C19.8681 18.8888 17.5797 20.4998 14.5134 20.4998Z" stroke="#383838" stroke-width="1.5" stroke-linecap="round" stroke-linejoin="round"/>
<path d="M14.6502 5.59824C14.6502 3.21216 12.716 1.27787 10.3299 1.27787V1.27787C9.18088 1.273 8.07727 1.72603 7.26308 2.53679C6.44889 3.34754 5.9912 4.44923 5.99121 5.59824H5.99121" stroke="#383838" stroke-width="1.5" stroke-linecap="round" stroke-linejoin="round"/>
<path fill-rule="evenodd" clip-rule="evenodd" d="M13.296 10.1017H13.2502H13.296Z" fill="#383838"/>
<path d="M13.296 10.1017H13.2502" stroke="#383838" stroke-width="1.5" stroke-linecap="round" stroke-linejoin="round"/>
<path fill-rule="evenodd" clip-rule="evenodd" d="M7.46492 10.1017H7.41916H7.46492Z" fill="#383838"/>
<path d="M7.46492 10.1017H7.41916" stroke="#383838" stroke-width="1.5" stroke-linecap="round" stroke-linejoin="round"/>
</svg>
